<?xml version="1.0" standalone="no"?>
<!DOCTYPE svg PUBLIC "-//W3C//DTD SVG 20010904//EN"
 "http://www.w3.org/TR/2001/REC-SVG-20010904/DTD/svg10.dtd">
<svg version="1.0" xmlns="http://www.w3.org/2000/svg"
 width="4096.000000pt" height="4096.000000pt" viewBox="0 0 4096.000000 4096.000000"
 preserveAspectRatio="xMidYMid meet">
<metadata>
Created by potrace 1.14, written by Peter Selinger 2001-2017
</metadata>
<g transform="translate(0.000000,4096.000000) scale(0.100000,-0.100000)"
fill="#000000" stroke="none">
<path d="M20159 38666 c-2 -2 -94 -7 -204 -10 -110 -4 -225 -9 -255 -11 -30
-2 -102 -6 -160 -10 -150 -8 -219 -14 -520 -40 -73 -7 -356 -35 -400 -41 -37
-4 -68 -8 -165 -19 -33 -3 -72 -8 -87 -11 -70 -10 -129 -19 -210 -29 -21 -3
-54 -7 -73 -10 -19 -3 -52 -7 -72 -10 -20 -3 -48 -7 -62 -10 -14 -2 -84 -14
-156 -25 -186 -30 -195 -31 -440 -74 -16 -3 -151 -31 -300 -61 -148 -31 -281
-58 -295 -61 -14 -3 -90 -21 -169 -40 -79 -19 -153 -36 -165 -39 -11 -2 -84
-20 -161 -40 -77 -20 -147 -38 -155 -40 -47 -11 -260 -69 -350 -95 -58 -17
-121 -36 -140 -41 -19 -5 -42 -11 -50 -14 -8 -2 -53 -16 -100 -30 -47 -14
-105 -32 -130 -39 -295 -87 -1163 -395 -1355 -482 -16 -7 -55 -23 -85 -34 -30
-12 -68 -27 -85 -35 -16 -7 -70 -30 -120 -50 -49 -21 -113 -48 -142 -61 -28
-13 -54 -24 -57 -24 -3 0 -38 -15 -78 -34 -40 -19 -120 -55 -178 -81 -58 -26
-145 -66 -195 -89 -49 -24 -93 -43 -97 -44 -11 -3 -612 -308 -723 -367 -182
-97 -455 -251 -635 -357 -219 -130 -207 -122 -289 -174 -113 -70 -110 -69
-124 -37 -52 118 -178 237 -310 293 -44 19 -72 41 -115 90 -64 72 -102 109
-251 248 -57 53 -113 108 -125 122 -21 25 -210 222 -321 335 -56 57 -206 184
-270 230 -30 21 -116 93 -125 104 -10 13 -181 131 -189 131 -5 0 -11 3 -13 8
-14 33 -431 314 -577 389 -99 51 -169 94 -378 230 -46 29 -87 53 -92 53 -5 0
-11 3 -13 8 -3 8 -153 82 -166 82 -4 0 -19 6 -34 14 -43 22 -131 52 -288 96
-80 22 -179 54 -220 72 -211 87 -407 124 -710 133 -515 16 -465 17 -573 -15
-133 -39 -241 -105 -316 -194 -14 -15 -30 -33 -36 -40 -52 -54 -149 -283 -191
-451 -44 -181 -83 -293 -160 -461 -37 -82 -55 -182 -59 -329 -1 -71 -8 -152
-15 -180 -6 -27 -14 -59 -16 -70 -2 -11 -6 -29 -8 -40 -18 -89 -66 -348 -71
-380 -3 -23 -8 -52 -11 -65 -2 -14 -7 -38 -9 -55 -3 -16 -7 -41 -10 -55 -2
-13 -7 -42 -10 -65 -4 -22 -8 -52 -10 -66 -3 -14 -7 -43 -10 -65 -2 -21 -7
-55 -10 -74 -2 -19 -7 -55 -11 -80 -3 -25 -7 -54 -9 -65 -2 -11 -12 -96 -24
-190 -12 -93 -23 -186 -26 -205 -3 -19 -7 -60 -10 -90 -3 -30 -7 -72 -10 -92
-3 -21 -7 -55 -10 -75 -3 -21 -7 -63 -10 -93 -3 -30 -7 -66 -10 -80 -2 -14 -7
-54 -11 -90 -3 -36 -8 -78 -10 -95 -2 -16 -6 -52 -9 -80 -12 -103 -15 -131
-21 -175 -4 -25 -8 -53 -10 -64 -2 -10 -6 -44 -10 -75 -3 -31 -8 -58 -9 -61
-2 -3 -6 -34 -10 -70 -3 -36 -8 -76 -10 -90 -4 -27 -9 -61 -25 -190 -6 -47
-13 -96 -15 -110 -2 -14 -7 -50 -10 -80 -8 -69 -15 -121 -20 -140 -2 -8 -6
-28 -9 -45 -11 -73 -19 -121 -22 -139 -3 -19 -21 -148 -30 -216 -2 -19 -6 -74
-8 -122 -2 -48 -6 -90 -9 -95 -17 -27 -89 -300 -103 -388 -10 -63 -13 -443 -4
-515 5 -36 11 -94 14 -130 9 -93 32 -301 41 -365 4 -29 8 -62 20 -190 3 -33 8
-78 10 -100 2 -22 7 -69 10 -105 3 -36 7 -87 10 -115 2 -27 7 -81 10 -120 3
-38 8 -90 11 -115 2 -25 6 -67 9 -95 9 -107 16 -182 20 -230 9 -92 14 -159 20
-280 3 -66 7 -142 10 -170 5 -65 18 -324 17 -349 -1 -10 -24 -56 -51 -103 -28
-46 -51 -87 -51 -90 0 -3 -8 -17 -18 -31 -11 -15 -33 -52 -49 -82 -17 -30 -47
-84 -68 -120 -20 -36 -64 -117 -98 -180 -33 -63 -80 -151 -105 -195 -44 -79
-382 -759 -382 -768 0 -3 -20 -47 -44 -98 -64 -138 -156 -346 -216 -489 -28
-69 -58 -138 -65 -155 -25 -57 -157 -390 -186 -470 -16 -44 -34 -89 -39 -100
-17 -38 -165 -455 -175 -495 -2 -8 -13 -40 -24 -70 -23 -63 -148 -458 -181
-570 -12 -41 -27 -91 -33 -110 -6 -19 -12 -37 -12 -40 -1 -3 -7 -25 -15 -50
-7 -25 -15 -54 -17 -65 -2 -11 -7 -31 -13 -45 -5 -14 -23 -77 -39 -140 -30
-114 -88 -341 -95 -371 -2 -8 -11 -44 -20 -80 -9 -35 -18 -74 -21 -87 -2 -13
-7 -32 -10 -42 -3 -10 -7 -27 -9 -37 -2 -10 -20 -90 -40 -178 -42 -190 -73
-337 -81 -385 -3 -19 -17 -89 -30 -155 -13 -66 -27 -136 -30 -155 -3 -19 -7
-46 -10 -60 -3 -14 -7 -41 -10 -60 -3 -19 -14 -84 -25 -145 -10 -60 -22 -130
-25 -155 -3 -25 -10 -70 -15 -100 -5 -30 -12 -75 -15 -100 -3 -25 -8 -56 -10
-70 -2 -14 -7 -43 -9 -65 -3 -22 -10 -78 -17 -125 -13 -96 -14 -110 -23 -195
-4 -33 -8 -70 -10 -82 -3 -12 -7 -54 -11 -95 -3 -40 -8 -84 -10 -98 -2 -14 -7
-59 -10 -100 -3 -41 -8 -91 -10 -110 -3 -19 -7 -66 -10 -105 -3 -38 -7 -92
-10 -120 -6 -53 -10 -117 -20 -285 -4 -58 -8 -127 -10 -155 -28 -399 -28
-1509 0 -1980 2 -27 6 -102 10 -165 3 -63 8 -137 11 -165 2 -27 7 -84 9 -125
3 -41 7 -95 10 -120 2 -25 10 -99 16 -165 6 -66 13 -131 14 -145 1 -14 5 -54
9 -90 4 -36 9 -81 11 -100 3 -19 8 -55 10 -80 3 -25 7 -61 10 -80 2 -19 7 -59
10 -89 4 -30 8 -62 10 -72 2 -10 6 -44 10 -76 3 -32 8 -65 10 -73 2 -8 6 -36
9 -62 3 -26 10 -76 15 -110 6 -35 13 -80 17 -102 3 -21 8 -48 10 -60 2 -11 7
-41 10 -66 3 -25 7 -47 9 -50 2 -3 6 -30 10 -60 3 -30 8 -62 10 -70 3 -8 11
-53 20 -100 8 -47 17 -96 20 -110 3 -14 10 -52 16 -85 6 -33 13 -69 15 -80 12
-66 61 -295 96 -450 22 -99 44 -198 48 -220 16 -73 131 -519 142 -553 15 -41
11 -45 -107 -108 -91 -48 -139 -76 -217 -127 -24 -16 -79 -51 -122 -78 -105
-64 -162 -111 -212 -173 -36 -45 -99 -146 -95 -154 1 -1 -6 -28 -15 -59 -54
-185 1 -403 138 -544 118 -122 234 -176 396 -183 100 -5 188 14 287 62 44 22
115 55 158 75 42 20 92 50 110 66 17 17 35 31 39 31 3 0 14 -24 24 -52 9 -29
19 -57 23 -63 3 -5 6 -12 6 -15 0 -3 5 -18 12 -35 6 -16 26 -70 44 -120 40
-112 207 -544 249 -645 18 -41 50 -118 72 -170 54 -128 61 -146 92 -213 14
-32 26 -59 26 -61 0 -2 20 -47 45 -100 25 -53 45 -98 45 -100 0 -16 342 -711
448 -912 62 -117 158 -294 215 -394 11 -19 31 -55 45 -80 14 -25 33 -58 43
-75 10 -16 28 -48 40 -69 12 -22 59 -102 104 -177 l83 -138 -32 -28 c-17 -16
-68 -57 -113 -91 -44 -34 -110 -91 -146 -126 -35 -35 -93 -83 -128 -106 -67
-46 -172 -129 -177 -143 -2 -4 -25 -19 -52 -32 -26 -13 -81 -50 -122 -82 -40
-32 -91 -67 -113 -78 -22 -11 -44 -23 -50 -27 -5 -4 -32 -24 -59 -44 -27 -20
-63 -41 -80 -46 -17 -6 -65 -26 -106 -45 -41 -19 -102 -44 -135 -55 -64 -21
-290 -130 -321 -154 -40 -30 -95 -64 -105 -64 -35 0 -161 -82 -224 -146 -174
-174 -220 -424 -121 -656 59 -138 195 -261 348 -314 87 -31 221 -39 313 -19
91 20 277 101 374 164 47 31 97 62 111 68 80 37 277 114 349 137 107 35 161
62 240 122 62 48 122 88 151 101 8 4 44 26 79 50 35 24 77 51 95 60 60 31 161
102 213 150 28 26 92 77 142 111 50 35 123 98 163 140 69 74 146 142 160 142
3 0 30 -34 60 -76 134 -189 532 -720 558 -744 3 -3 28 -34 55 -68 67 -85 359
-440 400 -486 6 -6 39 -45 75 -86 98 -113 145 -165 268 -300 28 -30 62 -68 78
-85 142 -156 320 -341 529 -550 210 -210 309 -306 560 -540 12 -11 60 -54 106
-95 46 -41 86 -77 89 -80 4 -5 98 -87 200 -176 85 -74 203 -174 297 -250 59
-49 114 -94 121 -101 7 -7 41 -34 75 -60 34 -26 64 -50 67 -53 3 -4 46 -37 95
-75 50 -38 95 -74 102 -80 57 -48 400 -303 578 -428 99 -70 188 -133 197 -139
9 -7 66 -46 125 -86 421 -284 756 -493 1193 -743 264 -151 283 -162 545 -301
169 -90 736 -369 890 -437 22 -10 67 -31 100 -46 33 -15 110 -49 170 -75 61
-26 130 -56 155 -67 38 -17 380 -157 445 -183 11 -4 31 -12 45 -18 138 -59
844 -312 870 -312 6 0 18 -4 28 -10 45 -25 822 -258 1019 -305 10 -3 133 -34
273 -69 140 -36 269 -68 285 -71 17 -3 48 -10 70 -15 22 -6 54 -13 70 -16 17
-3 77 -16 135 -29 121 -27 339 -72 390 -80 19 -3 51 -10 70 -15 19 -5 56 -11
82 -15 26 -3 53 -7 60 -10 7 -2 29 -6 48 -9 19 -3 45 -8 56 -10 12 -2 39 -7
60 -11 62 -9 82 -13 214 -34 69 -11 143 -23 165 -26 22 -3 49 -7 60 -9 11 -2
63 -9 115 -16 52 -6 106 -13 120 -16 14 -2 104 -13 200 -24 96 -11 189 -22
205 -24 17 -2 62 -7 100 -10 39 -4 88 -8 110 -11 22 -2 72 -7 110 -10 39 -3
86 -8 105 -10 19 -2 73 -6 120 -10 47 -3 101 -8 120 -10 19 -2 89 -7 155 -11
66 -3 143 -7 170 -9 350 -21 1337 -28 1705 -11 280 12 445 22 559 31 25 2 84
6 131 10 47 3 101 8 120 10 19 2 69 7 110 10 41 3 91 8 110 10 19 2 67 7 105
10 39 4 81 8 95 11 14 2 57 6 95 10 39 3 73 8 76 10 3 2 37 6 75 9 38 3 80 8
94 10 14 2 48 7 75 10 28 4 97 13 155 21 58 8 123 17 145 20 22 2 63 9 90 14
28 5 68 12 90 15 40 6 117 19 185 31 19 3 44 7 55 9 11 1 47 8 80 14 33 6 74
13 90 16 17 3 45 7 62 10 18 3 34 6 35 6 2 0 21 4 43 9 22 6 56 13 75 16 46 8
231 46 345 72 50 12 101 23 115 26 14 3 36 7 50 10 14 3 36 8 50 11 14 3 35 7
48 10 13 2 32 7 42 10 10 3 27 7 37 9 10 2 56 14 103 26 47 12 92 23 100 25 8
2 35 8 60 14 25 7 52 13 60 15 8 2 42 12 75 21 33 9 85 22 115 30 147 36 597
168 855 252 382 124 685 233 1085 390 118 46 230 91 248 99 49 22 86 37 232
99 74 31 160 68 190 82 30 14 98 44 150 68 305 138 837 403 1105 549 33 19 87
48 120 66 92 50 343 193 413 235 9 6 40 23 67 39 68 40 105 62 369 226 414
257 873 571 1258 860 48 36 99 74 114 85 42 31 408 318 414 325 3 3 41 35 85
70 44 35 96 78 115 94 20 17 60 51 90 76 447 372 1084 975 1500 1420 74 79
144 154 155 165 11 12 56 62 100 111 44 49 87 96 95 104 8 8 44 49 80 90 36
41 67 77 70 80 3 3 30 34 60 70 30 36 57 67 60 70 8 7 222 266 318 385 48 59
254 323 296 378 11 16 31 41 42 55 33 42 301 410 385 529 111 157 368 546 475
716 27 43 59 93 70 111 42 65 272 453 351 591 81 142 120 213 188 340 21 39
49 90 63 115 14 25 92 178 175 340 82 163 154 294 160 292 7 -2 57 -23 113
-47 55 -25 105 -45 111 -45 5 0 21 -10 35 -23 93 -86 250 -141 388 -136 208 8
400 130 493 315 107 212 66 483 -98 648 -137 138 -241 212 -354 252 -111 38
-231 89 -231 98 0 2 30 80 66 172 36 93 80 209 99 259 18 49 50 135 71 190 47
128 287 852 299 905 1 4 11 38 41 143 4 13 11 16 22 12 84 -35 314 -49 417
-26 212 47 388 223 438 436 18 75 15 214 -6 280 -59 192 -189 330 -367 390
-59 20 -61 21 -129 30 -86 12 -85 -16 -9 360 37 185 70 355 73 378 4 23 8 44
10 48 2 3 7 30 10 59 4 30 8 57 10 60 2 4 7 29 10 56 3 27 8 60 11 74 21 110
78 512 99 695 3 28 8 61 10 75 2 14 7 56 10 95 4 38 8 76 10 85 1 8 6 53 10
100 4 47 9 93 11 103 1 9 6 56 9 105 4 48 8 94 10 102 2 8 6 62 10 120 4 58 8
121 10 140 2 19 7 88 10 152 4 64 8 138 10 165 27 362 27 1561 0 1958 -3 33
-7 102 -10 154 -7 116 -13 206 -20 291 -3 36 -7 88 -9 115 -5 65 -17 183 -21
215 -2 14 -7 61 -10 105 -4 44 -8 91 -10 105 -2 14 -7 52 -10 85 -4 33 -8 71
-10 85 -2 14 -7 52 -10 85 -3 33 -8 71 -10 85 -3 14 -7 45 -10 70 -3 25 -12
92 -21 150 -8 58 -17 121 -20 140 -3 19 -9 60 -14 90 -5 30 -11 71 -14 90 -7
49 -67 396 -91 525 -3 17 -10 51 -16 77 -6 25 -12 57 -14 70 -17 129 -198 908
-275 1183 -54 193 -132 462 -164 565 -54 179 -156 493 -166 515 -5 11 -22 61
-38 110 -57 172 -245 680 -282 760 -5 11 -35 83 -66 160 -31 77 -62 154 -69
170 -8 17 -25 56 -39 88 -14 32 -26 61 -26 65 0 4 -6 19 -14 33 l-13 26 81 0
c85 0 214 25 253 49 12 8 27 14 33 14 21 0 124 74 175 125 77 76 131 165 164
268 7 20 29 59 50 85 46 59 101 141 101 151 0 6 57 73 123 146 35 38 198 300
262 420 58 110 68 127 168 290 133 216 179 314 271 585 48 140 95 286 105 324
11 39 44 157 74 262 50 174 109 415 123 504 3 19 8 38 11 43 2 4 6 20 9 35 4
22 12 61 19 92 4 18 26 119 29 135 2 11 9 38 14 60 6 22 13 56 16 75 3 19 8
46 11 60 2 14 11 61 20 105 8 44 28 152 45 240 17 88 33 171 35 185 3 14 12
59 20 100 9 41 18 89 21 105 3 17 26 80 51 140 129 312 206 507 224 570 11 39
23 77 26 85 8 19 6 14 27 85 10 33 20 67 23 75 4 8 7 17 7 20 3 12 53 134 93
225 25 55 48 109 53 120 15 34 39 117 56 190 20 89 21 90 28 150 4 28 9 61 11
75 2 14 9 63 15 110 6 47 13 96 15 110 6 45 19 160 29 275 4 39 9 90 11 115 3
25 7 81 10 125 3 44 7 103 9 130 3 28 7 84 11 125 3 41 10 109 15 150 5 41 12
100 15 130 3 30 8 66 10 80 3 14 7 48 10 75 3 28 7 66 10 85 2 19 7 60 10 90
4 30 8 66 10 80 2 14 7 50 10 80 3 30 8 66 10 80 2 14 6 52 10 85 3 33 8 78
11 100 2 22 6 69 9 105 4 70 14 156 20 180 2 8 7 31 10 50 3 19 10 58 15 85 5
28 12 73 15 100 11 92 16 109 50 190 91 216 84 444 -21 646 -38 71 -146 179
-225 222 -160 89 -358 99 -524 26 -30 -13 -255 -157 -265 -169 -3 -4 -30 -25
-60 -47 -74 -56 -203 -113 -320 -143 -25 -7 -58 -18 -75 -25 -59 -25 -141 -65
-175 -84 -19 -11 -71 -37 -115 -58 -44 -20 -111 -57 -149 -82 -38 -25 -109
-72 -158 -103 -49 -31 -107 -72 -131 -91 -23 -19 -113 -82 -199 -140 -87 -59
-197 -135 -245 -170 -85 -61 -143 -99 -303 -202 -78 -50 -421 -302 -431 -317
-3 -4 -72 -9 -155 -11 -103 -3 -180 -10 -250 -25 -55 -12 -116 -24 -135 -26
-19 -3 -56 -7 -84 -11 -27 -4 -61 -8 -75 -10 -14 -2 -47 -7 -75 -10 -45 -5
-82 -10 -155 -20 -14 -2 -47 -6 -75 -10 -27 -3 -75 -10 -105 -15 -30 -5 -73
-12 -95 -15 -22 -4 -56 -10 -75 -15 -19 -5 -62 -11 -95 -15 -33 -3 -76 -8 -95
-10 -19 -3 -55 -7 -79 -10 -82 -10 -365 -94 -541 -161 -19 -7 -98 -35 -175
-63 -382 -136 -888 -332 -1062 -412 -24 -10 -45 -19 -47 -19 -2 0 -24 -9 -50
-20 -25 -12 -49 -21 -53 -22 -7 -1 -99 -41 -158 -68 -50 -23 -1184 -485 -1213
-494 -17 -6 -33 1 -65 26 -23 18 -44 35 -47 38 -3 4 -50 42 -105 86 -55 43
-102 81 -105 84 -12 12 -482 365 -569 428 -469 336 -837 578 -1326 871 -237
142 -556 323 -710 403 -38 20 -99 53 -135 72 -77 42 -612 309 -720 359 -151
70 -215 99 -435 197 -22 9 -62 28 -90 40 -170 77 -727 297 -990 392 -341 123
-896 300 -1260 403 -71 20 -143 40 -160 45 -92 28 -686 173 -798 196 -10 2
-26 5 -35 8 -9 3 -28 7 -42 10 -14 2 -68 13 -120 24 -52 12 -108 23 -125 26
-16 3 -41 8 -55 11 -113 23 -374 70 -490 89 -19 3 -46 8 -60 10 -23 4 -229 38
-310 50 -19 3 -57 8 -85 11 -27 4 -72 10 -100 15 -27 5 -76 12 -109 15 -32 4
-68 8 -80 10 -24 4 -88 12 -161 20 -27 3 -68 8 -90 11 -122 14 -313 34 -380
38 -33 2 -87 7 -120 10 -69 7 -158 14 -265 22 -41 3 -97 7 -125 9 -27 2 -113
7 -190 10 -77 4 -171 9 -210 11 -83 6 -1271 15 -1276 10z m-13024 -1242 c68
-12 133 -34 250 -84 11 -4 54 -18 95 -30 259 -76 295 -94 575 -287 49 -34 137
-88 195 -119 58 -32 107 -60 110 -64 3 -4 34 -26 70 -50 36 -24 74 -52 84 -62
11 -10 23 -18 27 -18 4 0 14 -6 21 -13 7 -7 33 -28 58 -47 25 -19 47 -37 50
-41 3 -3 43 -34 90 -68 47 -34 105 -82 130 -105 25 -23 81 -71 125 -106 101
-81 124 -102 303 -283 81 -82 180 -181 220 -220 41 -40 119 -119 175 -177 245
-251 335 -337 375 -360 23 -13 41 -27 40 -31 -2 -4 -95 -76 -208 -160 -113
-84 -230 -173 -260 -197 -30 -24 -62 -49 -70 -55 -23 -18 -311 -248 -335 -268
-140 -116 -302 -254 -310 -263 -5 -7 -19 -18 -31 -26 -17 -12 -115 -97 -178
-155 -6 -5 -54 -48 -106 -95 -52 -47 -104 -94 -116 -105 -12 -11 -81 -76 -155
-145 -152 -142 -589 -577 -724 -720 -50 -53 -137 -147 -195 -210 -58 -63 -114
-124 -125 -135 -11 -12 -51 -57 -90 -101 -38 -43 -82 -92 -97 -109 -15 -16
-59 -68 -99 -115 -39 -47 -88 -105 -109 -130 -42 -50 -184 -220 -242 -290 -82
-100 -185 -233 -386 -497 -63 -84 -116 -152 -118 -150 -1 1 -5 63 -8 137 -4
74 -8 151 -11 170 -2 19 -6 73 -9 120 -4 47 -8 101 -10 120 -3 19 -7 76 -11
125 -3 50 -8 106 -11 125 -2 19 -7 132 -10 250 -7 232 -2 271 50 385 45 97 63
188 71 344 5 88 12 153 21 182 3 10 6 31 9 48 2 17 6 38 9 48 3 10 7 36 11 58
3 22 10 56 15 75 7 29 22 116 45 260 10 71 18 117 20 130 1 8 6 35 10 60 4 25
9 52 10 60 3 18 15 92 21 135 2 17 11 66 19 110 7 44 16 96 19 115 3 19 7 44
10 55 4 20 15 88 21 135 2 14 6 43 10 65 11 74 50 343 61 420 3 22 11 81 19
130 17 110 21 135 46 305 10 74 21 142 24 150 2 8 7 35 10 60 3 25 8 52 10 60
2 8 6 33 10 55 15 106 84 467 121 630 9 41 55 230 58 240 1 6 7 28 11 50 5 22
10 42 10 45 3 10 15 76 20 105 3 17 5 67 6 113 0 68 7 103 38 195 21 62 46
142 56 178 22 76 5 72 160 43z m31900 -1386 c-3 -24 -8 -54 -10 -68 -2 -14 -7
-50 -11 -80 -4 -30 -8 -57 -9 -60 -1 -3 -5 -32 -9 -65 -4 -32 -9 -67 -11 -76
-2 -9 -6 -34 -9 -55 -3 -22 -8 -50 -11 -64 -2 -14 -7 -43 -10 -65 -3 -22 -7
-51 -10 -65 -7 -49 -25 -176 -30 -220 -3 -25 -7 -61 -10 -80 -3 -30 -7 -61
-20 -190 -13 -120 -17 -159 -20 -185 -3 -16 -9 -68 -15 -115 -12 -94 -11 -93
-46 -305 -32 -196 -33 -202 -86 -325 -97 -224 -119 -280 -173 -440 -31 -91
-63 -178 -70 -195 -13 -29 -37 -88 -143 -340 -54 -129 -124 -338 -138 -416 -2
-8 -12 -54 -23 -101 -11 -47 -23 -101 -26 -120 -3 -18 -10 -46 -15 -63 -5 -16
-11 -47 -15 -69 -3 -21 -7 -41 -10 -45 -2 -4 -6 -20 -9 -36 -6 -34 -24 -122
-31 -150 -6 -23 -44 -201 -51 -230 -2 -11 -20 -83 -39 -160 -20 -77 -38 -149
-40 -160 -39 -171 -171 -634 -212 -745 -3 -8 -7 -19 -8 -25 -7 -30 -141 -388
-161 -432 -14 -28 -44 -80 -67 -115 -72 -108 -133 -214 -208 -361 -40 -78 -89
-170 -110 -204 -22 -35 -39 -67 -39 -71 0 -4 -18 -28 -40 -52 -22 -25 -72 -92
-110 -150 -199 -301 -247 -375 -266 -413 l-21 -40 -48 94 c-26 52 -60 117 -75
144 -15 28 -44 82 -65 120 -34 62 -132 239 -195 350 -12 22 -59 103 -105 180
-45 77 -91 154 -101 172 -16 27 -133 217 -247 398 -39 63 -344 523 -366 551
-9 12 -22 30 -28 40 -115 174 -534 737 -710 954 -7 8 -38 47 -69 85 -123 152
-183 224 -200 240 -5 6 -28 33 -49 60 -22 28 -42 52 -45 55 -3 3 -46 52 -95
110 -50 58 -94 110 -100 116 -5 6 -39 44 -75 84 -87 99 -171 190 -410 445
-104 111 -534 540 -658 657 l-102 96 57 22 c32 12 90 33 128 47 39 14 84 31
100 38 17 7 158 61 315 120 157 59 299 113 315 120 17 7 86 34 155 60 167 62
186 69 250 95 30 12 59 23 65 25 5 1 17 5 25 8 70 29 601 208 890 300 218 69
278 85 350 92 25 2 77 7 115 10 39 3 111 12 160 20 95 14 142 20 240 30 33 3
76 8 95 10 19 2 62 7 95 10 214 20 292 29 389 45 38 6 83 8 100 4 17 -4 38 -9
46 -11 45 -10 116 -16 205 -16 82 0 114 5 178 27 156 53 295 140 433 273 58
55 239 188 327 240 23 13 60 35 82 49 22 13 49 29 60 34 11 5 119 75 240 154
415 273 520 341 545 353 14 6 48 27 75 46 28 19 51 35 53 36 2 1 0 -18 -3 -41z"/>
</g>
</svg>
